<svg width="32" height="32" viewBox="0 0 32 32" fill="none" xmlns="http://www.w3.org/2000/svg">
  <defs>
    <linearGradient id="cloudflareGradient" x1="0%" y1="0%" x2="100%" y2="100%">
      <stop offset="0%" stop-color="#F38020" />
      <stop offset="100%" stop-color="#F96B30" />
    </linearGradient>
  </defs>
  <path d="M15.8 6C10.3 6 5.8 10.5 5.8 16C5.8 21.5 10.3 26 15.8 26C21.3 26 25.8 21.5 25.8 16C25.8 10.5 21.3 6 15.8 6ZM21.2 18.3C21.1 18.4 20.9 18.5 20.7 18.5H11.4C11.2 18.5 11 18.4 10.9 18.2C10.8 18 10.8 17.8 10.9 17.6L11.4 16.6C11.5 16.4 11.7 16.3 11.9 16.3H18.9L19.2 15.6H11.1C10.9 15.6 10.7 15.5 10.6 15.3C10.5 15.1 10.5 14.9 10.6 14.7L11.1 13.7C11.2 13.5 11.4 13.4 11.6 13.4H19.6L20.3 11.8C20.4 11.6 20.6 11.5 20.8 11.5H22.3C22.5 11.5 22.7 11.6 22.8 11.8C22.9 12 22.9 12.2 22.8 12.4L21.2 18.3Z" fill="url(#cloudflareGradient)" />
</svg>